<?xml version="1.0" encoding="utf-8"?><svg  version="1.1" xmlns="http://www.w3.org/2000/svg" xmlns:xlink="http://www.w3.org/1999/xlink" x="0px" y="0px" viewBox="0 0 32 32" style="enable-background:new 0 0 32 32;" xml:space="preserve"><g><style type="text/css">.contact-icon{fill:#455aa3;}</style><path class="contact-icon" d="M2.93379,21.91955c2.32448,5.12806,7.41393,8.422,13.06621,8.422c5.65273,0,10.74212-3.29369,13.06628-8.42207C30.71973,21.69937,32,20.28069,32,18.56799V17.9827v-4.07135v-0.47949c0-1.71309-1.28086-3.13203-2.93483-3.35169c-2.28216-5.02754-7.30299-8.32819-12.82812-8.41973C10.50573,1.56545,5.29753,4.86649,2.93327,10.08036C1.28001,10.30067,0,11.71929,0,13.43186v5.13613C0,20.28075,1.28027,21.69944,2.93379,21.91955z M16,29.12099c-4.97227,0-9.46849-2.78594-11.69766-7.17077h23.39531C25.46869,26.33505,20.97266,29.12099,16,29.12099z M11.69674,13.65894h1.52331l1.03158,3.19329l1.03171-3.19329h1.42441l1.03164,3.19329l1.03164-3.19329h1.53281l-1.79811,5.286h-1.53281l-0.97259-2.87891l-0.98288,2.87891h-1.52266L11.69674,13.65894z M29.16602,13.65894l-1.79805,5.286h-1.53281l-0.97259-2.87891l-0.98288,2.87891h-1.52266l-1.79805-5.286h1.52331l1.03157,3.19329l1.03171-3.19329h1.42435l1.03171,3.19329l1.03164-3.19329H29.16602z M16.2168,2.88088c4.85645,0.08047,9.28769,2.87064,11.47995,7.16875H4.30176C6.56973,5.5898,11.17181,2.79729,16.2168,2.88088z M4.35781,13.65894l1.03164,3.19329l1.03164-3.19329h1.42441l1.03164,3.19329l1.03164-3.19329h1.53281l-1.79805,5.286H8.11068l-0.97259-2.87891l-0.98288,2.87891H4.63255l-1.79805-5.286H4.35781z"/></g></svg>